<svg width="25" height="21" viewBox="0 0 25 21" fill="none" xmlns="http://www.w3.org/2000/svg">
<path d="M23.1888 2.99527V8.99527H17.1888" stroke="white" stroke-width="2" stroke-linecap="round" stroke-linejoin="round"/>
<path d="M3.69884 7.99525C4.20601 6.56204 5.06798 5.28066 6.20431 4.27067C7.34064 3.26069 8.71431 2.55502 10.1971 2.21951C11.68 1.884 13.2236 1.92959 14.684 2.35203C16.1445 2.77446 17.4741 3.55997 18.5488 4.63525L23.1888 8.99525M1.18884 12.9953L5.82884 17.3553C6.90359 18.4305 8.23322 19.216 9.69365 19.6385C11.1541 20.0609 12.6977 20.1065 14.1806 19.771C15.6634 19.4355 17.037 18.7298 18.1734 17.7198C19.3097 16.7098 20.1717 15.4285 20.6788 13.9953" stroke="white" stroke-width="2" stroke-linecap="round" stroke-linejoin="round"/>
<path d="M1.18884 18.9953V12.9953H7.18884" stroke="white" stroke-width="2" stroke-linecap="round" stroke-linejoin="round"/>
</svg>
